<svg id="Réteg_1" data-name="Réteg 1" xmlns="http://www.w3.org/2000/svg" viewBox="0 0 523.55 127.05"><defs><style>.cls-1{fill:#fff;}.cls-2{fill:#81b229;}</style></defs><title>cim_feher</title><g id="Cím"><path class="cls-1" d="M60.12,255.17H49.78V194.44H60.12v31.75h.16L74.4,194.44h1.84L66.5,216.28l14.2,38.89H70.2l-9.92-27.89h-.16Z" transform="translate(-49.78 -146.7)"/><path class="cls-1" d="M104.55,255.84a2.29,2.29,0,0,1-.84.17h-.84a8,8,0,0,1-4-1,4.71,4.71,0,0,1-2.27-3.19H96.4A4.46,4.46,0,0,1,94.26,255a7.62,7.62,0,0,1-3.91,1c-2.57,0-4.45-.87-5.62-2.61S83,248.56,83,244.08a25.88,25.88,0,0,1,.76-6.8,11.6,11.6,0,0,1,2.35-4.62,11.09,11.09,0,0,1,4.07-2.94A25.24,25.24,0,0,1,96.07,228v-8.49c0-1.51,0-2.73-.13-3.65a6.06,6.06,0,0,0-.5-2.14,2,2,0,0,0-1-1,4.45,4.45,0,0,0-1.64-.25,6.85,6.85,0,0,0-3.49,1,5.54,5.54,0,0,0-2.39,2.61l1.68,8.23q-4.45-.09-4.45-5a7.24,7.24,0,0,1,.71-3.1,8.17,8.17,0,0,1,2.06-2.69,10.09,10.09,0,0,1,3.36-1.89A13.94,13.94,0,0,1,95,211a22.59,22.59,0,0,1,2.82.21,7.69,7.69,0,0,1,3.15,1.18,7.55,7.55,0,0,1,2.56,2.94,12.11,12.11,0,0,1,1,5.59Zm-13.1-6.55a8.61,8.61,0,0,0,.29,2.43c.2.68.85,1,2,1a1.9,1.9,0,0,0,2-1.76,22.05,22.05,0,0,0,.34-4V229.63c-1.91.34-3.15.91-3.74,1.72a7.15,7.15,0,0,0-.88,4.08Z" transform="translate(-49.78 -146.7)"/><path class="cls-1" d="M111.52,255.17v-42l8.32-1.6v4l.17.08a7.62,7.62,0,0,1,2.81-3.36,7.47,7.47,0,0,1,4.24-1.26c3.31,0,5.29,1.6,6,4.79h.16a7.21,7.21,0,0,1,2.61-3.44,6.8,6.8,0,0,1,4.11-1.35,6.28,6.28,0,0,1,3.32.8,6.15,6.15,0,0,1,2.1,2.14,8.89,8.89,0,0,1,1.09,3.11,21.54,21.54,0,0,1,.3,3.61v34.53h-8.49V218.54a10.2,10.2,0,0,0-.37-3.31,1.39,1.39,0,0,0-1.39-1q-1.09,0-2.1,1.68a9,9,0,0,0-1,4.62v34.61h-8.48V218.54a10.13,10.13,0,0,0-.38-3.31,1.38,1.38,0,0,0-1.39-1q-1.08,0-2.1,1.68a9,9,0,0,0-1,4.62v34.61Z" transform="translate(-49.78 -146.7)"/><path class="cls-1" d="M161.42,233.58v16a5.77,5.77,0,0,0,.91,3.74,4,4,0,0,0,3.09,1,5,5,0,0,0,3-1,9,9,0,0,0,2.34-2.61,17.2,17.2,0,0,0,1.71-3.9,35.18,35.18,0,0,0,1.13-5h1.5a33.44,33.44,0,0,1-1.09,5.8,14.52,14.52,0,0,1-2.05,4.41,8.82,8.82,0,0,1-3.35,2.81,11,11,0,0,1-4.89,1,8.8,8.8,0,0,1-4.48-1.18,10,10,0,0,1-3.56-3.74,22,22,0,0,1-2.34-6.76,53.19,53.19,0,0,1-.84-10.25c0-2.8.12-5.57.34-8.31a27.45,27.45,0,0,1,1.55-7.39,13.15,13.15,0,0,1,3.47-5.34A8.74,8.74,0,0,1,164,211a12,12,0,0,1,4.52.84,8.17,8.17,0,0,1,3.68,3.28,19.79,19.79,0,0,1,2.47,6.85,61.38,61.38,0,0,1,.88,11.63Zm-3.36-27,8.65-14h7.9l-14,14Zm3.36,25.45h5.63v-14.2a10.91,10.91,0,0,0-.63-4.49,2.3,2.3,0,0,0-2.23-1.22,2.34,2.34,0,0,0-2.23,1,6.08,6.08,0,0,0-.54,2.89Z" transform="translate(-49.78 -146.7)"/><path class="cls-1" d="M182.92,196l8.48-1.59v59.38h2.52v1.35h-11Z" transform="translate(-49.78 -146.7)"/><path class="cls-1" d="M208,233.58v16a5.77,5.77,0,0,0,.91,3.74,3.93,3.93,0,0,0,3.09,1,5,5,0,0,0,3-1,9,9,0,0,0,2.34-2.61,17.65,17.65,0,0,0,1.71-3.9,35.18,35.18,0,0,0,1.13-5h1.5a34.41,34.41,0,0,1-1.09,5.8,14.52,14.52,0,0,1-2,4.41,8.9,8.9,0,0,1-3.35,2.81,11,11,0,0,1-4.89,1,8.8,8.8,0,0,1-4.48-1.18,10,10,0,0,1-3.56-3.74,22,22,0,0,1-2.34-6.76,53.19,53.19,0,0,1-.84-10.25q0-4.2.34-8.31a27.84,27.84,0,0,1,1.54-7.39,13.27,13.27,0,0,1,3.48-5.34A8.72,8.72,0,0,1,210.6,211a12.07,12.07,0,0,1,4.52.84,8.17,8.17,0,0,1,3.68,3.28,19.79,19.79,0,0,1,2.47,6.85,62.23,62.23,0,0,1,.88,11.63Zm0-1.51h5.62v-14.2a10.91,10.91,0,0,0-.63-4.49,2.29,2.29,0,0,0-2.22-1.22,2.34,2.34,0,0,0-2.23,1A6.08,6.08,0,0,0,208,216Z" transform="translate(-49.78 -146.7)"/><circle class="cls-1" cx="161.57" cy="25.07" r="15.53"/><path class="cls-2" d="M233.36,205.19a.43.43,0,0,1,.79,0,5.17,5.17,0,0,0,1.06,2c.94.75,2.21,1.69,3.19,1.53.75-.11,1.73-1.75,1.81-2.78.26-3.47-2.82-6.5-6.35-6.59s-6.61,2.64-6.56,6c0,1,.82,1.89,1.51,2.89.13.2.9.21,1.09.09a15.53,15.53,0,0,0,2.49-1.61A4.78,4.78,0,0,0,233.36,205.19Z" transform="translate(-49.78 -146.7)"/><path class="cls-2" d="M248.49,211c0,.72,3.08,1,3,1.29-.58,1.7-1,3.5,1.29,4s3-1.26,3.42-3.11c.5-2.39.1-4.89-2.09-5.92a9.56,9.56,0,0,0-5.87-.44c-.88.2-2.06,2.47-1.85,3.54.35,1.76,2,1.65,3.53.89C250.28,211,247.76,211.06,248.49,211Z" transform="translate(-49.78 -146.7)"/><path class="cls-2" d="M237.2,196.18c-6-.47-12-.08-18-.08l-20.59-.73a17.46,17.46,0,0,1-8.31-3c0-.16.12-.14.23-.13,9.61.76,30.78,1.76,36.08-3.7,0,0,.05-.22-.11-.15a34.83,34.83,0,0,1-7.22,2.22,51.16,51.16,0,0,1-13,.53c-6-.37-10.9-.36-17.44-1-.14,0-1-.16-1.22-.57-2-2.5-2.42-5.18-1.8-8.76a28.09,28.09,0,0,1,3.4-9.32c5.32-9.07,13.24-15.21,22.41-19.64,7.73-3.74,15.89-5.77,24.49-5,5.87.57,6.68,2.22,4.16,7.53-.13.26-.25.53-.37.8-1.42,3.31-.74,4.94,2.68,5.45s6.66.53,10,.78c12.25.91,21.63,6.67,27.75,17.76,13.29,24.09,4.72,50-10.06,63.86-10.79,10.09-23.49,13.85-37.74,8.67-9.76-3.54-15.13-12.24-14.47-22.7.73-11.55,11.66-19.77,21.8-16.38,8.94,3,12.07,14.17,5.66,20.26-3.29,3.13-8.56,3.31-11.52.39-1.22-1.21-2-2.78-.68-4.1.64-.63,2.28-.23,3.47-.22s2.64.61,3.39.07c.91-.66,1.86-2.44,1.59-3.36a7.21,7.21,0,0,0-2.92-4.19c-3.77-1.93-8.39.93-9.42,5.42a11.12,11.12,0,0,0,7.3,12.8c6.84,2.23,15.1-1.08,18.66-7.48C263.79,217.09,254,197.52,237.2,196.18Zm-26.13-38.55a13.67,13.67,0,1,0,13,13.7A13.45,13.45,0,0,0,211.07,157.63Z" transform="translate(-49.78 -146.7)"/><ellipse class="cls-2" cx="156.15" cy="29.23" rx="3.45" ry="3.56"/><path class="cls-1" d="M305.46,256.19H297V217.72a4.47,4.47,0,0,0-.33-2,1.53,1.53,0,0,0-1.43-.58c-.62,0-1.19.42-1.72,1.26a6.15,6.15,0,0,0-.8,3.36v36.45h-8.49v-42l8.15-1.59v3.19h.34a11.88,11.88,0,0,1,2.94-2.94,7.11,7.11,0,0,1,3.78-.84,5.43,5.43,0,0,1,4.45,2q1.59,2,1.59,6.76Z" transform="translate(-49.78 -146.7)"/><path class="cls-1" d="M347.38,256.19h-8.49V217.72a4.47,4.47,0,0,0-.33-2,1.52,1.52,0,0,0-1.43-.58c-.62,0-1.19.42-1.72,1.26a6.23,6.23,0,0,0-.8,3.36v36.45h-8.48v-42l8.14-1.59v3.19h.34a11.88,11.88,0,0,1,2.94-2.94,7.16,7.16,0,0,1,3.78-.84,5.42,5.42,0,0,1,4.45,2q1.61,2,1.6,6.76Z" transform="translate(-49.78 -146.7)"/><path class="cls-1" d="M356.53,266.78l-.84,1.76H350a4.33,4.33,0,0,0,.59,1.93,4,4,0,0,0,1.39,1.26,5.06,5.06,0,0,0,2.64.59,3.78,3.78,0,0,0,3.07-1.76q1.31-1.77,2.31-6.47c.17-.73.32-1.49.46-2.27s.27-1.65.38-2.6l-8.74-45.87,8.4-.75,4.2,26.88h.17l5.38-26.88H372l-10.92,53.08a18.7,18.7,0,0,1-.76,2.78,11.29,11.29,0,0,1-1.3,2.6,6.61,6.61,0,0,1-2,1.93,5.36,5.36,0,0,1-2.9.76,5.5,5.5,0,0,1-4.66-1.93,7,7,0,0,1-1.47-4.37v-.67Z" transform="translate(-49.78 -146.7)"/><path class="cls-1" d="M396.77,256.86a2.1,2.1,0,0,1-.84.17h-.84a7.88,7.88,0,0,1-4-1,4.68,4.68,0,0,1-2.27-3.19h-.17a4.44,4.44,0,0,1-2.14,3.19,7.52,7.52,0,0,1-3.91,1c-2.57,0-4.45-.87-5.62-2.6s-1.77-4.85-1.77-9.33a26,26,0,0,1,.76-6.8,11.6,11.6,0,0,1,2.35-4.62,11.32,11.32,0,0,1,4.07-2.94,25.24,25.24,0,0,1,5.93-1.68v-8.48c0-1.52-.05-2.73-.13-3.66a6.12,6.12,0,0,0-.5-2.14,2,2,0,0,0-1-1,4.45,4.45,0,0,0-1.64-.25,6.86,6.86,0,0,0-3.49,1,5.52,5.52,0,0,0-2.39,2.6l1.68,8.23q-4.46-.08-4.45-5a7.28,7.28,0,0,1,.71-3.11,8.28,8.28,0,0,1,2.06-2.69,10.45,10.45,0,0,1,3.36-1.89,14.21,14.21,0,0,1,4.7-.71,22.59,22.59,0,0,1,2.82.21,7.35,7.35,0,0,1,5.71,4.11,12.11,12.11,0,0,1,1,5.59Zm-13.1-6.55a8.68,8.68,0,0,0,.29,2.44c.2.67.85,1,2,1a1.9,1.9,0,0,0,2-1.77,22,22,0,0,0,.34-4v-17.3c-1.91.33-3.15.91-3.74,1.72a7.12,7.12,0,0,0-.88,4.07Z" transform="translate(-49.78 -146.7)"/><path class="cls-1" d="M412,256.19h-8.48v-42l8.06-1.59v4.87l.17-.17a11.6,11.6,0,0,1,.72-1.64,11.79,11.79,0,0,1,1.09-1.72,5.22,5.22,0,0,1,1.59-1.39,4.52,4.52,0,0,1,2.23-.54,4.44,4.44,0,0,1,2.65.8,6.33,6.33,0,0,1,1.84,2,9.12,9.12,0,0,1,1.05,2.73,13.21,13.21,0,0,1,.34,2.94,14.87,14.87,0,0,1-.17,2.14,7.84,7.84,0,0,1-.63,2.15,5,5,0,0,1-1.22,1.68,3.25,3.25,0,0,1-2,.75v-13a2.73,2.73,0,0,0-.93-.71,2.4,2.4,0,0,0-1.09-.3,3,3,0,0,0-1.68.68,6.79,6.79,0,0,0-1.72,1.89,10.78,10.78,0,0,0-1.3,2.94,13,13,0,0,0-.51,3.73Z" transform="translate(-49.78 -146.7)"/><path class="cls-1" d="M446.58,256.86a2.1,2.1,0,0,1-.84.17h-.84a7.88,7.88,0,0,1-4-1,4.68,4.68,0,0,1-2.27-3.19h-.17a4.44,4.44,0,0,1-2.14,3.19,7.52,7.52,0,0,1-3.91,1c-2.57,0-4.45-.87-5.62-2.6S425,249.58,425,245.1a26.41,26.41,0,0,1,.76-6.8,11.6,11.6,0,0,1,2.35-4.62,11.32,11.32,0,0,1,4.07-2.94,25.24,25.24,0,0,1,5.93-1.68v-8.48c0-1.52-.05-2.73-.13-3.66a6.12,6.12,0,0,0-.5-2.14,2,2,0,0,0-1-1,4.45,4.45,0,0,0-1.64-.25,6.89,6.89,0,0,0-3.49,1,5.52,5.52,0,0,0-2.39,2.6l1.68,8.23q-4.46-.08-4.45-5a7.28,7.28,0,0,1,.71-3.11,8.28,8.28,0,0,1,2.06-2.69,10.45,10.45,0,0,1,3.36-1.89A14.25,14.25,0,0,1,437,212a22.59,22.59,0,0,1,2.82.21,7.35,7.35,0,0,1,5.71,4.11,12.11,12.11,0,0,1,1.05,5.59Zm-13.1-6.55a8.68,8.68,0,0,0,.29,2.44c.2.67.85,1,2,1a1.9,1.9,0,0,0,2-1.77,22,22,0,0,0,.34-4v-17.3c-1.91.33-3.15.91-3.74,1.72a7.12,7.12,0,0,0-.88,4.07Z" transform="translate(-49.78 -146.7)"/><path class="cls-1" d="M455,197.06l8.48-1.6v59.39H466v1.34H455Z" transform="translate(-49.78 -146.7)"/><path class="cls-1" d="M494.38,234.52q0,11.76-2.86,17.14a9.79,9.79,0,0,1-17.47,0q-2.87-5.39-2.86-17.14t2.86-17.14a9.79,9.79,0,0,1,17.47,0Q494.37,222.77,494.38,234.52Zm-17.65-26.88,8.66-14h7.89l-13.94,14Zm3.36,43.76a8,8,0,0,0,.51,3.07,2.1,2.1,0,0,0,2.18,1.22c1.29,0,2.06-.41,2.31-1.22a10.56,10.56,0,0,0,.38-3.07V217.64a8.18,8.18,0,0,0-.5-3.07,2.12,2.12,0,0,0-2.19-1.22,2.1,2.1,0,0,0-2.18,1.22,8,8,0,0,0-.51,3.07Z" transform="translate(-49.78 -146.7)"/><path class="cls-1" d="M499.92,197.06l8.48-1.6v20.16h.17a6.82,6.82,0,0,1,2.6-2.65,7.84,7.84,0,0,1,3.95-1,5.4,5.4,0,0,1,4.45,2q1.6,2,1.6,6.76v35.45h-8.48V217.72a4.44,4.44,0,0,0-.34-2c-.22-.39-.7-.58-1.43-.58s-1.19.42-1.72,1.26a6.23,6.23,0,0,0-.8,3.36v36.45h-8.48Z" transform="translate(-49.78 -146.7)"/><path class="cls-1" d="M547.63,256.86a2.1,2.1,0,0,1-.84.17H546a7.88,7.88,0,0,1-4-1,4.68,4.68,0,0,1-2.27-3.19h-.17a4.44,4.44,0,0,1-2.14,3.19,7.52,7.52,0,0,1-3.91,1q-3.85,0-5.63-2.6T526,245.1a26,26,0,0,1,.76-6.8,11.48,11.48,0,0,1,2.35-4.62,11.32,11.32,0,0,1,4.07-2.94,25.1,25.1,0,0,1,5.93-1.68v-8.48c0-1.52,0-2.73-.13-3.66a6.09,6.09,0,0,0-.51-2.14,2,2,0,0,0-1-1,4.45,4.45,0,0,0-1.64-.25,6.86,6.86,0,0,0-3.49,1,5.47,5.47,0,0,0-2.39,2.6l1.68,8.23q-4.45-.08-4.45-5a7.14,7.14,0,0,1,.71-3.11,8.28,8.28,0,0,1,2.06-2.69,10.24,10.24,0,0,1,3.36-1.89,14.21,14.21,0,0,1,4.7-.71,22.59,22.59,0,0,1,2.82.21,7.35,7.35,0,0,1,5.71,4.11,12.11,12.11,0,0,1,1,5.59Zm-14.79-49.22,8.66-14h7.89l-13.94,14Zm1.69,42.67a8.68,8.68,0,0,0,.29,2.44c.19.67.85,1,2,1a1.91,1.91,0,0,0,2-1.77,22,22,0,0,0,.34-4v-17.3c-1.91.33-3.15.91-3.74,1.72a7.12,7.12,0,0,0-.88,4.07Z" transform="translate(-49.78 -146.7)"/><path class="cls-1" d="M554,224.94V212.6h19.32l-13.44,42.25h10.59v-12.1h1.93v13.44H551.32v-.67l13.78-41.58h-9.32v11Z" transform="translate(-49.78 -146.7)"/></g></svg>