<svg xmlns="http://www.w3.org/2000/svg" viewBox="0 0 296.21 180.53"><defs><style>.cls-1{fill:#fff;}.cls-2{fill:#81b229;}</style></defs><title>mobil_cim_logo</title><g id="Réteg_1" data-name="Réteg 1"><g id="Cím"><path class="cls-1" d="M60.12,255.17H49.78V194.44H60.12v31.75h.16L74.4,194.44h1.84L66.5,216.28l14.2,38.89H70.2l-9.92-27.89h-.16Z" transform="translate(-49.78 -146.7)"/><path class="cls-1" d="M104.55,255.84a5.65,5.65,0,0,1-1.68.17c-3,0-5.63-1.26-6.3-4.2H96.4c-.5,2.85-3.11,4.2-6.05,4.2-5.12,0-7.39-2.94-7.39-11.93,0-10.75,3.87-14.45,13.11-16v-8.49c0-6.05-.68-7.05-3.28-7.05a6.73,6.73,0,0,0-5.88,3.61l1.68,8.23c-3-.08-4.45-1.85-4.45-5,0-4.28,3.78-8.4,10.83-8.4,3.2,0,9.58.34,9.58,9.92Zm-13.1-6.55c0,1.85,0,3.44,2.26,3.44s2.36-2.77,2.36-5.79V229.63c-3.78.67-4.62,2-4.62,5.8Z" transform="translate(-49.78 -146.7)"/><path class="cls-1" d="M111.52,255.17v-42l8.32-1.6v4l.17.08a7.64,7.64,0,0,1,7-4.62,5.64,5.64,0,0,1,6,4.79h.16a7.27,7.27,0,0,1,6.72-4.79c5.38,0,6.81,4.62,6.81,9.66v34.53h-8.49V218.54c0-3.1-.42-4.28-1.76-4.28s-3.11,2.35-3.11,6.3v34.61h-8.48V218.54c0-3.1-.42-4.28-1.77-4.28s-3.1,2.35-3.1,6.3v34.61Z" transform="translate(-49.78 -146.7)"/><path class="cls-1" d="M161.42,233.58v16c0,3.53,1.17,4.79,4,4.79,4.45,0,7.06-5.37,8.23-12.43h1.51c-.92,8.48-3.69,14-11.42,14-6.47,0-11.26-5.8-11.26-21.93,0-11.17,1.26-23.1,11.51-23.1,6.47,0,11.59,3.36,11.59,22.6Zm-3.36-27,8.65-14h7.9l-14,14Zm3.36,25.45h5.63v-14.2c0-4.37-.76-5.71-2.86-5.71-2.27,0-2.77,1.34-2.77,3.86Z" transform="translate(-49.78 -146.7)"/><path class="cls-1" d="M182.92,196l8.48-1.59v59.38h2.52v1.35h-11Z" transform="translate(-49.78 -146.7)"/><path class="cls-1" d="M208,233.58v16c0,3.53,1.17,4.79,4,4.79,4.45,0,7.05-5.37,8.23-12.43h1.51c-.92,8.48-3.69,14-11.42,14-6.47,0-11.26-5.8-11.26-21.93,0-11.17,1.26-23.1,11.51-23.1,6.47,0,11.59,3.36,11.59,22.6Zm0-1.51h5.62v-14.2c0-4.37-.75-5.71-2.85-5.71-2.27,0-2.77,1.34-2.77,3.86Z" transform="translate(-49.78 -146.7)"/><circle class="cls-1" cx="161.57" cy="25.07" r="15.53"/><path class="cls-2" d="M233.36,205.19a.43.43,0,0,1,.79,0,5.17,5.17,0,0,0,1.06,2c.94.75,2.21,1.69,3.19,1.53.75-.11,1.73-1.75,1.81-2.78.26-3.47-2.82-6.5-6.35-6.59s-6.61,2.64-6.56,6c0,1,.82,1.89,1.51,2.89.13.2.9.21,1.09.09a15.53,15.53,0,0,0,2.49-1.61A4.78,4.78,0,0,0,233.36,205.19Z" transform="translate(-49.78 -146.7)"/><path class="cls-2" d="M248.49,211c0,.72,3.08,1,3,1.29-.58,1.7-1,3.5,1.29,4s3-1.26,3.42-3.11c.5-2.39.1-4.89-2.09-5.92a9.56,9.56,0,0,0-5.87-.44c-.88.2-2.06,2.47-1.85,3.54.35,1.76,2,1.65,3.53.89C250.28,211,247.76,211.06,248.49,211Z" transform="translate(-49.78 -146.7)"/><path class="cls-2" d="M237.2,196.18c-6-.47-12-.08-18-.08l-20.59-.73a17.46,17.46,0,0,1-8.31-3c0-.16.12-.14.23-.13,9.61.76,30.78,1.76,36.08-3.7,0,0,.05-.22-.11-.15a34.83,34.83,0,0,1-7.22,2.22,51.16,51.16,0,0,1-13,.53c-6-.37-10.9-.36-17.44-1-.14,0-1-.16-1.22-.57-2-2.5-2.42-5.18-1.8-8.76a28.09,28.09,0,0,1,3.4-9.32c5.32-9.07,13.24-15.21,22.41-19.64,7.73-3.74,15.89-5.77,24.49-5,5.87.57,6.68,2.22,4.16,7.53-.13.26-.25.53-.37.8-1.42,3.31-.74,4.94,2.68,5.45s6.66.53,10,.78c12.25.91,21.63,6.67,27.75,17.76,13.29,24.09,4.72,50-10.06,63.86-10.79,10.09-23.49,13.85-37.74,8.67-9.76-3.54-15.13-12.24-14.47-22.7.73-11.55,11.66-19.77,21.8-16.38,8.94,3,12.07,14.17,5.66,20.26-3.29,3.13-8.56,3.31-11.52.39-1.22-1.21-2-2.78-.68-4.1.64-.63,2.28-.23,3.47-.22s2.64.61,3.39.07c.91-.66,1.86-2.44,1.59-3.36a7.21,7.21,0,0,0-2.92-4.19c-3.77-1.93-8.39.93-9.42,5.42a11.12,11.12,0,0,0,7.3,12.8c6.84,2.23,15.1-1.08,18.66-7.48C263.79,217.09,254,197.52,237.2,196.18Zm-26.13-38.55a13.67,13.67,0,1,0,13,13.7A13.45,13.45,0,0,0,211.07,157.63Z" transform="translate(-49.78 -146.7)"/><ellipse class="cls-2" cx="156.15" cy="29.23" rx="3.45" ry="3.56"/><path class="cls-1" d="M120,309.67h-8.48V271.2c0-1.93-.33-2.6-1.76-2.6-1.18,0-2.52,1.85-2.52,4.62v36.45H98.79v-42l8.15-1.59v3.19h.34c2.1-2.86,3.44-3.78,6.72-3.78,3.78,0,6,2.44,6,8.74Z" transform="translate(-49.78 -146.7)"/><path class="cls-1" d="M129.2,320.26l-.84,1.76h-5.71s.08,3.78,4.62,3.78c2.35,0,4-2,5.37-8.23.34-1.43.59-3,.84-4.87l-8.73-45.87,8.4-.75,4.2,26.88h.17l5.37-26.88h1.77l-10.92,53.09c-.68,3.52-2.52,8.06-7,8.06-4.28,0-6.13-3-6.13-6.3v-.67Z" transform="translate(-49.78 -146.7)"/><path class="cls-1" d="M169.44,310.35a6,6,0,0,1-1.68.16c-3,0-5.63-1.26-6.3-4.2h-.17c-.51,2.86-3.11,4.2-6,4.2-5.12,0-7.39-2.94-7.39-11.92,0-10.76,3.86-14.45,13.1-16v-8.48c0-6.05-.67-7.06-3.27-7.06a6.72,6.72,0,0,0-5.88,3.61l1.68,8.24c-3-.09-4.46-1.85-4.46-5,0-4.28,3.78-8.4,10.84-8.4,3.19,0,9.58.34,9.58,9.91Zm-13.11-6.56c0,1.85,0,3.45,2.27,3.45s2.35-2.77,2.35-5.8v-17.3c-3.78.67-4.62,2-4.62,5.79Z" transform="translate(-49.78 -146.7)"/><path class="cls-1" d="M184.64,309.67h-8.48v-42l8.06-1.59V271l.17-.17c.75-1.93,2.18-5.29,5.63-5.29,4.11,0,5.88,4.7,5.88,8.48,0,2.69-.76,6.47-4,6.72v-13a2.78,2.78,0,0,0-2-1c-2.1,0-5.21,3.78-5.21,9.24Z" transform="translate(-49.78 -146.7)"/><path class="cls-1" d="M219.25,310.35a6,6,0,0,1-1.68.16c-3,0-5.63-1.26-6.3-4.2h-.17c-.5,2.86-3.11,4.2-6,4.2-5.12,0-7.39-2.94-7.39-11.92,0-10.76,3.86-14.45,13.1-16v-8.48c0-6.05-.67-7.06-3.27-7.06a6.73,6.73,0,0,0-5.88,3.61l1.68,8.24c-3-.09-4.45-1.85-4.45-5,0-4.28,3.78-8.4,10.83-8.4,3.19,0,9.58.34,9.58,9.91Zm-13.11-6.56c0,1.85,0,3.45,2.27,3.45s2.35-2.77,2.35-5.8v-17.3c-3.78.67-4.62,2-4.62,5.79Z" transform="translate(-49.78 -146.7)"/><path class="cls-1" d="M227.65,250.54l8.48-1.6v59.39h2.52v1.34h-11Z" transform="translate(-49.78 -146.7)"/><path class="cls-1" d="M255.45,310.51c-7.81,0-11.59-6.88-11.59-22.51s3.78-22.51,11.59-22.51S267,272.38,267,288,263.26,310.51,255.45,310.51Zm-6-49.39,8.65-14H266l-13.95,14Zm3.36,43.77c0,2.43.5,4.28,2.69,4.28,2.6,0,2.69-1.85,2.69-4.28V271.12c0-2.44-.51-4.29-2.69-4.29s-2.69,1.85-2.69,4.29Z" transform="translate(-49.78 -146.7)"/><path class="cls-1" d="M272.58,250.54l8.49-1.6V269.1h.17a7.25,7.25,0,0,1,6.55-3.61c3.78,0,6,2.44,6,8.74v35.44h-8.49V271.2c0-1.93-.33-2.6-1.76-2.6-1.18,0-2.52,1.85-2.52,4.62v36.45h-8.49Z" transform="translate(-49.78 -146.7)"/><path class="cls-1" d="M320.29,310.35a5.92,5.92,0,0,1-1.67.16c-3,0-5.63-1.26-6.3-4.2h-.17c-.51,2.86-3.11,4.2-6,4.2-5.13,0-7.39-2.94-7.39-11.92,0-10.76,3.86-14.45,13.1-16v-8.48c0-6.05-.67-7.06-3.27-7.06a6.72,6.72,0,0,0-5.88,3.61l1.67,8.24c-3-.09-4.45-1.85-4.45-5,0-4.28,3.78-8.4,10.84-8.4,3.19,0,9.57.34,9.57,9.91Zm-14.78-49.23,8.65-14h7.9l-13.94,14Zm1.68,42.67c0,1.85,0,3.45,2.27,3.45s2.35-2.77,2.35-5.8v-17.3c-3.78.67-4.62,2-4.62,5.79Z" transform="translate(-49.78 -146.7)"/><path class="cls-1" d="M326.68,278.43V266.08H346l-13.44,42.25h10.58v-12.1h1.93v13.44H324V309l13.78-41.58h-9.33v11Z" transform="translate(-49.78 -146.7)"/><path class="cls-1" d="M305.46,256.19H297V217.72c0-1.93-.33-2.6-1.76-2.6-1.18,0-2.52,1.84-2.52,4.62v36.45h-8.49v-42l8.15-1.59v3.19h.34c2.1-2.86,3.44-3.78,6.72-3.78,3.78,0,6,2.43,6,8.73Z" transform="translate(-49.78 -146.7)"/><path class="cls-1" d="M191.94,360.51" transform="translate(-49.78 -146.7)"/></g></g></svg>